<svg width="18" height="17" viewBox="0 0 18 17" fill="none" xmlns="http://www.w3.org/2000/svg">
<path d="M17.6229 7.64309C17.8643 7.87115 18 8.18047 18 8.50301C18 8.82554 17.8643 9.13486 17.6229 9.36292C17.3814 9.59099 17.0539 9.71911 16.7124 9.71911C16.3709 9.71911 16.0434 9.59099 15.8019 9.36292L10.2865 4.15183V15.786C10.2865 16.108 10.151 16.4168 9.90998 16.6444C9.66892 16.8721 9.34198 17 9.00107 17C8.66016 17 8.33322 16.8721 8.09216 16.6444C7.8511 16.4168 7.71567 16.108 7.71567 15.786V4.15183L2.19811 9.3609C1.95664 9.58897 1.62912 9.71709 1.28763 9.71709C0.946126 9.71709 0.618613 9.58897 0.377137 9.3609C0.13566 9.13284 5.08874e-09 8.82352 0 8.50099C-5.08874e-09 8.17845 0.13566 7.86913 0.377137 7.64107L8.08951 0.357064C8.20893 0.243887 8.35083 0.154087 8.50707 0.0928138C8.66331 0.0315408 8.83082 0 9 0C9.16918 0 9.33669 0.0315408 9.49293 0.0928138C9.64917 0.154087 9.79107 0.243887 9.91049 0.357064L17.6229 7.64309Z" fill="#F0603C"/>
</svg>
